<svg id="Capa_1" enable-background="new 0 0 512 512" height="512" viewBox="0 0 512 512" width="512" xmlns="http://www.w3.org/2000/svg"><g><g><g><path d="m46 69v-30.001h45v30.001" fill="#adb9c8"/></g><g><path d="m421.04 69v-30.001h45v30.001" fill="#adb9c8"/></g><g><path d="m53.459 249h-37.459v-180h480v180h-36.857" fill="#9eb6f4"/></g><g><path d="m38.504 226.749v-157.749h-22.504v180h37.459 405.684 36.857v-22.251z" fill="#6e91ef"/></g><g><g><path d="m38.46 91.501h30v15h-30z"/></g><g><path d="m83.469 91.501h30v15h-30z"/></g><g><path d="m128.478 91.501h30v15h-30z"/></g><g><path d="m173.486 91.501h30v15h-30z"/></g><g><path d="m218.495 91.501h30v15h-30z"/></g><g><path d="m263.505 91.501h30v15h-30z"/></g><g><path d="m308.514 91.501h30v15h-30z"/></g><g><path d="m353.522 91.501h30v15h-30z"/></g><g><path d="m398.531 91.501h30v15h-30z"/></g><g><path d="m443.54 91.501h30v15h-30z"/></g></g><g><g><path d="m38.46 121.417h30v15h-30z"/></g><g><path d="m83.469 121.417h30v15h-30z"/></g><g><path d="m128.478 121.417h30v15h-30z"/></g><g><path d="m173.486 121.417h30v15h-30z"/></g><g><path d="m218.495 121.417h30v15h-30z"/></g><g><path d="m263.505 121.417h30v15h-30z"/></g><g><path d="m308.514 121.417h30v15h-30z"/></g><g><path d="m353.522 121.417h30v15h-30z"/></g><g><path d="m398.531 121.417h30v15h-30z"/></g><g><path d="m443.54 121.417h30v15h-30z"/></g></g><g><g><path d="m38.46 181.5h30v15h-30z"/></g><g><path d="m173.486 181.5h30v15h-30z"/></g><g><path d="m218.495 181.5h30v15h-30z"/></g><g><path d="m263.505 181.5h30v15h-30z"/></g><g><path d="m308.514 181.5h30v15h-30z"/></g><g><path d="m443.54 181.5h30v15h-30z"/></g></g><g><g><path d="m38.46 151.5h30v15h-30z"/></g><g><path d="m173.486 151.5h30v15h-30z"/></g><g><path d="m218.495 151.5h30v15h-30z"/></g><g><path d="m263.505 151.5h30v15h-30z"/></g><g><path d="m308.514 151.5h30v15h-30z"/></g><g><path d="m353.522 151.5h15.622v15h-15.622z"/></g><g><path d="m443.54 151.5h30v15h-30z"/></g></g><g><g><path d="m196 211.5h120v15h-120z"/></g></g><g><path d="m354.652 512v-97.5l-45.498-47.5v-118h30v-60h29.991v-45.491h30 29.999v60.242h29.999v308.249z" fill="#f6e6d1"/></g><g><g><path d="m371.833 143.509h23.379v22.825h-23.379z" fill="#e8bc85"/></g><g><path d="m401.842 143.509h23.379v22.825h-23.379z" fill="#e8bc85"/></g><g><path d="m431.851 204.005h23.379v18.995h-23.379z" fill="#e8bc85"/></g><g><path d="m378.032 496.5v-91.5l-45.499-47.125v-108.875h-23.379v118l45.498 47.5v97.5h104.491v-15.5z" fill="#e8bc85"/></g><g><path d="m339.154 189h23.379v44.5h-23.379z" fill="#e8bc85"/></g></g><g><path d="m54.001 512v-308.249h29.999v-30.25h29.999v-29.992h59.991v105.491h30v118l-45.498 47.5v97.5z" fill="#f6e6d1"/></g><g><path d="m84 173.501h29.999v41.253h-29.999z" fill="#e8bc85"/></g><g><path d="m113.996 145.707h29.999v20.627h-29.999z" fill="#e8bc85"/></g><g><path d="m143.478 145.707h29.999v20.627h-29.999z" fill="#e8bc85"/></g><g><g><path d="m76.333 497.667v-293.916h-22.333v308.249h104.492v-14.333z" fill="#e8bc85"/></g></g></g><g><path d="m503.5 61.5h-29.96v-30.001h-60v30.001h-150.04v-61.5h-15v61.5h-150v-30.001h-60v30.001h-30v195h38.001v74.5h15v-119.749h14.999v89.749h15v-119.999h14.999v104.999h15v-134.991h15v119.991h15v-119.991h14.991v164.991h15v-59.5h15v107.487l-45.499 47.5v100.513h15v-94.487l45.499-47.5v-113.513h90.163v113.513l45.499 47.5v94.487h15v-100.513l-45.499-47.5v-107.487h15v59.5h15v-119.5h14.991v74.5h15v-119.991h15.001v134.991h15v-134.991h14.998v149.991h15v-89.749h15v224.749h15v-179.5h36.857zm-74.96-15.001h30v15.001h-30zm-375.04 0h30v15.001h-30zm435 195.001h-21.856v-45.249h-30v-60.242h-74.999v45.491h-29.991v60h-150.164v-105.491h-74.991v29.992h-29.999v30.25h-29.999v45.249h-23.001v-165h465z"/><path d="m451.644 451h15v15h-15z"/><path d="m451.644 481h15v31h-15z"/><path d="m46.501 346h15v15h-15z"/><path d="m46.501 376h15v136h-15z"/></g></g></svg>